<svg xmlns="http://www.w3.org/2000/svg" viewBox="0 0 64 64">
  <defs>
    <linearGradient id="g" x1="0" y1="0" x2="1" y2="1">
      <stop offset="0" stop-color="#2d6a4f" />
      <stop offset="1" stop-color="#52b788" />
    </linearGradient>
  </defs>
  <rect width="64" height="64" rx="14" fill="url(#g)" />
  <path
    d="M40.6 17.8c-8.6.2-15.2 6.7-15.2 15.1 0 8.9 7.4 15.9 16.8 15.2 4.3-.3 7.9-2.1 10.4-4.9v-7.4h-9.4v4.6h4.2c-1.6 2.1-4.2 3.4-7.4 3.4-5.6 0-10-4.1-10-9.9 0-5.8 4.4-10.1 10-10.1 2.7 0 5.1 1 6.9 2.7l3.2-3.3c-2.6-2.5-6-4-9.5-3.9z"
    fill="#ffffff"
    opacity="0.95"
  />
</svg>

